<?xml version="1.0" standalone="no"?><!DOCTYPE svg PUBLIC "-//W3C//DTD SVG 1.1//EN" "http://www.w3.org/Graphics/SVG/1.1/DTD/svg11.dtd"><svg t="1592998198603" class="icon" viewBox="0 0 1024 1024" version="1.1" xmlns="http://www.w3.org/2000/svg" p-id="1196" xmlns:xlink="http://www.w3.org/1999/xlink" width="200" height="200"><defs><style type="text/css"></style></defs><path d="M614.4 503.467c14.933 0 27.733 12.8 27.733 27.733s-12.8 27.733-27.733 27.733h-57.6v34.134c0 19.2-14.933 34.133-36.267 34.133-19.2 0-36.266-14.933-36.266-34.133v-34.134H428.8c-14.933 0-27.733-12.8-27.733-27.733s12.8-27.733 27.733-27.733h55.467v-27.734H428.8c-14.933 0-27.733-12.8-27.733-27.733s12.8-27.733 27.733-27.733H480c0-2.134 2.133-4.267 2.133-4.267l-64-61.867c-8.533-8.533-6.4-23.466 6.4-34.133 10.667-10.667 25.6-12.8 34.134-6.4l61.866 61.867 57.6-61.867c8.534-10.667 27.734-6.4 38.4 4.267S633.6 339.2 622.933 352L556.8 420.267v2.133h57.6c14.933 0 27.733 12.8 27.733 27.733s-12.8 27.734-27.733 27.734h-57.6V505.6h57.6z" fill="#FFAA00" p-id="1197"></path><path d="M283.733 910.933c-14.933 0-32-4.266-44.8-12.8-21.333-12.8-34.133-34.133-34.133-57.6V189.867c0-40.534 38.4-72.534 85.333-72.534h469.334c46.933 0 85.333 32 85.333 72.534v652.8c0 23.466-12.8 44.8-34.133 57.6-27.734 14.933-61.867 17.066-89.6 0L537.6 797.867c-8.533-4.267-21.333-4.267-29.867 0l-183.466 102.4c-10.667 8.533-25.6 10.666-40.534 10.666z m241.067-179.2c14.933 0 32 4.267 44.8 10.667l183.467 102.4c6.4 2.133 12.8 4.267 19.2 2.133l8.533-4.266v-652.8c0-2.134-6.4-8.534-21.333-8.534H290.133c-14.933 0-21.333 6.4-21.333 8.534v652.8s2.133 2.133 8.533 4.266c6.4 2.134 14.934 2.134 19.2-2.133L480 742.4c12.8-6.4 27.733-10.667 44.8-10.667z" p-id="1198"></path></svg>