<?xml version="1.0" standalone="no"?><!DOCTYPE svg PUBLIC "-//W3C//DTD SVG 1.1//EN" "http://www.w3.org/Graphics/SVG/1.1/DTD/svg11.dtd"><svg t="1592998169859" class="icon" viewBox="0 0 1024 1024" version="1.1" xmlns="http://www.w3.org/2000/svg" p-id="910" xmlns:xlink="http://www.w3.org/1999/xlink" width="200" height="200"><defs><style type="text/css"></style></defs><path d="M915.802 812.897H158.507V197.85c0-15.998-12.97-28.968-28.968-28.968s-28.968 12.97-28.968 28.968v640.471c0 13.195 8.824 24.321 20.89 27.819a28.82 28.82 0 0 0 15.8 4.694h778.542c15.999 0 28.97-12.97 28.97-28.97s-12.972-28.967-28.97-28.967z" p-id="911"></path><path d="M204.844 668.588h73.961c8.328 0 15.553-4.69 19.2-11.568l45.75-64.514 71.31 145.69c3.77 7.704 11.494 12.18 19.53 12.18 0.48 0 0.96-0.021 1.442-0.054 0.047 0 0.095 0.006 0.142 0.006 9.036 0 17.477-5.685 20.559-14.714l113.297-331.94 66.883 203.013c2.647 8.037 9.536 13.483 17.364 14.68a21.643 21.643 0 0 0 8.136 1.591H777.54c8.762 13.07 26.164 21.98 46.21 21.98 28.855 0 52.25-18.452 52.25-41.217 0-22.757-23.394-41.21-52.25-41.21-17.378 0-32.767 6.699-42.266 16.993H673.712L591.706 330.59c-1.557-7.205-6.74-13.439-14.223-15.993-11.356-3.877-23.704 2.187-27.58 13.544L431.924 673.8 367.71 542.613a21.8 21.8 0 0 0-2.21-3.578 21.645 21.645 0 0 0-5.952-6.36c-9.788-6.94-23.348-4.634-30.29 5.154l-61.913 87.306h-62.503c-12 0-21.726 9.727-21.726 21.726s9.728 21.727 21.727 21.727z" fill="#FFBB13" p-id="912"></path></svg>